<svg width="1000" height="1000" viewBox="0 0 1000 1000" fill="none" xmlns="http://www.w3.org/2000/svg">
<rect width="1000" height="1000" rx="500" fill="#191A23"/>
<path d="M144.335 610.705C139.08 610.705 134.57 608.822 130.805 605.058C127.041 601.294 125.159 596.784 125.159 591.528C125.159 586.273 127.041 581.763 130.805 577.999C134.57 574.234 139.08 572.352 144.335 572.352C149.591 572.352 154.101 574.234 157.865 577.999C161.629 581.763 163.511 586.273 163.511 591.528C163.511 595.009 162.624 598.205 160.848 601.116C159.143 604.028 156.835 606.372 153.923 608.148C151.082 609.852 147.886 610.705 144.335 610.705ZM279.367 609H212.038V390.818H282.35C303.515 390.818 321.626 395.186 336.683 403.922C351.739 412.587 363.281 425.051 371.306 441.315C379.332 457.509 383.344 476.898 383.344 499.483C383.344 522.21 379.296 541.777 371.2 558.183C363.103 574.518 351.313 587.089 335.83 595.896C320.347 604.632 301.526 609 279.367 609ZM238.458 585.562H277.663C295.702 585.562 310.653 582.082 322.513 575.122C334.374 568.162 343.217 558.254 349.04 545.399C354.864 532.544 357.776 517.239 357.776 499.483C357.776 481.869 354.9 466.706 349.147 453.993C343.394 441.209 334.8 431.408 323.366 424.589C311.931 417.7 297.691 414.256 280.646 414.256H238.458V585.562ZM427.663 609V390.818H559.339V414.256H454.083V487.977H552.521V511.415H454.083V585.562H561.043V609H427.663ZM615.908 390.818L680.681 574.483H683.238L748.011 390.818H775.71L695.596 609H668.323L588.21 390.818H615.908ZM895.48 609V632.438H759.117V609H895.48Z" fill="#B9FF66"/>
</svg>
